# xmcd
#
# Track frame offsets: 
#        151
#        4701
#        17490
#        34580
#        47522
#        72572
#        95076
#        111054
#        129942
#        152756
#        177101
#        188426
#        207500
#        209603
#
# Disc length: 2803 seconds
#
# Revision: 0
# Processed by: cddbd v1.5.2PL0 Copyright (c) Steve Scherf et al.
# Submitted via: ExactAudioCopy v0.99pb4
#
DISCID=b50af10e
DTITLE=Smokestack - El Cobra
DYEAR=1900
DGENRE=Blues
TTITLE0=Intro
TTITLE1=Jokamo
TTITLE2=Loco Kid
TTITLE3=Blue River
TTITLE4=Junkyard Dog
TTITLE5=Morning Train
TTITLE6=Walking Blues
TTITLE7=El Cobra
TTITLE8=Stormy Monday
TTITLE9=Stones
TTITLE10=Shake Your Hips
TTITLE11=World Turns Blue
TTITLE12=Outro
TTITLE13=Outro II
EXTD=
EXTT0=
EXTT1=
EXTT2=
EXTT3=
EXTT4=
EXTT5=
EXTT6=
EXTT7=
EXTT8=
EXTT9=
EXTT10=
EXTT11=
EXTT12=
EXTT13=
PLAYORDER=
